#!OML:ASF H:\GeneralSubjects\Female5\Project 1\Capture day 1\Session 1\Female5.ASF
:FULLY-SPECIFIED
:DEGREES
173
root 1.29373 22.3638 3.28657 183.064 -83.4326 -166.438
lowerback 15.8826 0.927137 -2.74496
upperback -5.68012 0.312596 -1.95636
thorax -15.4447 0.257934 -0.748775
lowerneck -16.7783 1.73707 1.16409
upperneck 46.0935 -2.40998 3.16626
head 21.7033 -1.14902 0.587139
rclavicle -1.2921e-014 2.62396e-014
rhumerus -51.3929 16.2899 -62.3203
rradius 45.6177
rwrist -8.45606
rhand -23.2269 -17.968
rfingers 7.12502
rthumb 3.22399 -47.9234
lclavicle -1.2921e-014 2.62396e-014
lhumerus -36.7982 -11.6682 74.8645
lradius 63.8587
lwrist 0.424699
lhand -31.8187 27.8956
lfingers 7.12502
lthumb -5.07368 57.8148
rfemur -52.8263 -7.4872 32.0957
rtibia 65.2443
rfoot -8.12303 -10.2863
rtoes -21.7494
lfemur -27.2638 -0.286742 -32.9399
ltibia 36.2234
lfoot 334.426 -13.5489
ltoes -30.2811
174
root 1.1272 22.3289 3.25818 184.282 -83.4684 -167.965
lowerback 15.7662 0.936824 -2.89345
upperback -5.6553 0.291921 -1.99489
thorax -15.3437 0.25955 -0.699393
lowerneck -16.7868 1.73864 1.19717
upperneck 46.1932 -2.44387 3.15948
head 21.7855 -1.16166 0.569303
rclavicle -9.93923e-016 -3.97569e-015
rhumerus -51.8833 15.9268 -62.0833
rradius 43.5628
rwrist -7.7736
rhand -22.9928 -17.7562
rfingers 7.12502
rthumb 3.45009 -47.708
lclavicle -9.93923e-016 -3.97569e-015
lhumerus -36.9329 -11.5559 74.4858
lradius 64.2439
lwrist 0.422899
lhand -31.7077 27.9802
lfingers 7.12502
lthumb -4.96652 57.902
rfemur -52.1357 -6.8915 31.4453
rtibia 60.5272
rfoot -5.98972 -10.7485
rtoes -21.4124
lfemur -26.507 -0.216955 -33.077
ltibia 36.9205
lfoot 334.206 -13.5541
ltoes -31.8926
175
root 0.955767 22.2842 3.22718 185.485 -83.5412 -169.473
lowerback 15.5875 0.945524 -3.02276
upperback -5.63324 0.278991 -2.02393
thorax -15.207 0.263262 -0.6512
lowerneck -17.1775 1.74192 1.13756
upperneck 46.2876 -2.49703 3.20468
head 22.3167 -1.1862 0.573504
rclavicle 4.77083e-015 -2.8625e-014
rhumerus -52.3794 15.6438 -61.8254
rradius 41.5457
rwrist -7.07035
rhand -22.8238 -17.3198
rfingers 7.12502
rthumb 3.61327 -47.2689
lclavicle 4.77083e-015 -2.8625e-014
lhumerus -37.0537 -11.4504 74.0409
lradius 64.7027
lwrist 0.440634
lhand -31.5849 28.0742
lfingers 7.12502
lthumb -4.84794 57.9987
rfemur -51.1115 -6.33801 30.7334
rtibia 55.4733
rfoot -3.38495 -11.6863
rtoes -20.9288
lfemur -25.7956 -0.199981 -33.2107
ltibia 37.7411
lfoot 333.92 -13.6155
ltoes -33.44
176
root 0.778165 22.2295 3.1938 186.72 -83.6568 -171.006
lowerback 15.3377 0.949002 -3.12043
upperback -5.6172 0.270735 -2.0464
thorax -15.0329 0.266218 -0.613573
lowerneck -17.2217 1.75639 1.1362
upperneck 46.4705 -2.51655 3.19918
head 22.4977 -1.20181 0.566066
rclavicle 2.08724e-014 -3.02153e-014
rhumerus -52.905 15.4386 -61.5407
rradius 39.6179
rwrist -6.42925
rhand -22.6789 -16.7934
rfingers 7.12502
rthumb 3.75315 -46.74
lclavicle 2.08724e-014 -3.02153e-014
lhumerus -37.1724 -11.3731 73.4976
lradius 65.2512
lwrist 0.461897
lhand -31.4297 28.1682
lfingers 7.12502
lthumb -4.6981 58.0961
rfemur -49.7984 -5.81027 29.9564
rtibia 50.2333
rfoot -0.614661 -13.1463
rtoes -19.349
lfemur -25.1133 -0.21865 -33.3491
ltibia 38.6644
lfoot 333.576 -13.7395
ltoes -34.9351
177
root 0.593401 22.165 3.1583 188.071 -83.8176 -172.652
lowerback 15.0159 0.944733 -3.18039
upperback -5.61098 0.264248 -2.06571
thorax -14.8255 0.266297 -0.593065
lowerneck -17.2593 1.77487 1.12405
upperneck 46.682 -2.51916 3.17036
head 22.7033 -1.21726 0.551887
rclavicle 3.97569e-016 4.13472e-014
rhumerus -53.4758 15.3023 -61.2142
rradius 37.8091
rwrist -5.88586
rhand -22.4815 -16.3916
rfingers 7.12502
rthumb 3.94383 -46.3349
lclavicle 3.97569e-016 4.13472e-014
lhumerus -37.2943 -11.3321 72.8209
lradius 65.8932
lwrist 0.463698
lhand -31.2236 28.2662
lfingers 7.12502
lthumb -4.49904 58.1984
rfemur -48.2636 -5.30543 29.1156
rtibia 44.9808
rfoot 2.19102 -14.9819
rtoes -17.59
lfemur -24.4475 -0.263626 -33.5017
ltibia 39.6795
lfoot 333.197 -13.923
ltoes -36.4356
178
root 0.401445 22.0911 3.12074 189.674 -84.0231 -174.541
lowerback 14.6348 0.931868 -3.20658
upperback -5.61888 0.255765 -2.08562
thorax -14.5979 0.26198 -0.591016
lowerneck -17.2527 1.7846 1.09668
upperneck 46.8823 -2.51237 3.11589
head 22.8827 -1.23574 0.528425
rclavicle 1.76918e-014 -4.6118e-014
rhumerus -54.0995 15.2245 -60.829
rradius 36.1255
rwrist -5.42351
rhand -22.2154 -16.2296
rfingers 7.12502
rthumb 4.20075 -46.1679
lclavicle 1.76918e-014 -4.6118e-014
lhumerus -37.4136 -11.3134 71.974
lradius 66.6283
lwrist 0.450656
lhand -30.9899 28.3424
lfingers 7.12502
lthumb -4.27334 58.2792
rfemur -46.5853 -4.83515 28.2259
rtibia 39.8792
rfoot 4.75638 -17.0279
rtoes -15.7657
lfemur -23.7968 -0.336639 -33.678
ltibia 40.784
lfoot 332.81 -14.1411
ltoes -37.9651
179
root 0.202761 22.0093 3.08114 191.598 -84.2676 -176.744
lowerback 14.2192 0.91142 -3.19785
upperback -5.64617 0.244734 -2.10759
thorax -14.3716 0.25299 -0.610214
lowerneck -17.1998 1.78201 1.03902
upperneck 47.0601 -2.50241 3.05559
head 23.0245 -1.25953 0.50804
rclavicle 1.35174e-014 0
rhumerus -54.7771 15.185 -60.3539
rradius 34.5657
rwrist -5.0018
rhand -21.8862 -16.3246
rfingers 7.12502
rthumb 4.51869 -46.2564
lclavicle 1.35174e-014 0
lhumerus -37.5247 -11.292 70.9249
lradius 67.4643
lwrist 0.483428
lhand -30.7436 28.4401
lfingers 7.12502
lthumb -4.03553 58.3816
rfemur -44.8295 -4.4036 27.3124
rtibia 35.0619
rfoot 6.73357 -19.3054
rtoes -13.1919
lfemur -23.1658 -0.435133 -33.8759
ltibia 41.9863
lfoot 332.421 -14.3648
ltoes -39.4947
